<?xml version="1.0" encoding="UTF-8" standalone="no"?>
<svg
   width="212px"
   height="345px"
   viewBox="0 0 212 345"
   version="1.1"
   id="svg51"
   sodipodi:docname="minds.svg"
   inkscape:version="1.1.2 (0a00cf5339, 2022-02-04)"
   xmlns:inkscape="http://www.inkscape.org/namespaces/inkscape"
   xmlns:sodipodi="http://sodipodi.sourceforge.net/DTD/sodipodi-0.dtd"
   xmlns="http://www.w3.org/2000/svg"
   xmlns:svg="http://www.w3.org/2000/svg"
   xmlns:rdf="http://www.w3.org/1999/02/22-rdf-syntax-ns#"
   xmlns:cc="http://creativecommons.org/ns#"
   xmlns:dc="http://purl.org/dc/elements/1.1/">
  <sodipodi:namedview
     id="namedview53"
     pagecolor="#ffffff"
     bordercolor="#666666"
     borderopacity="1.0"
     inkscape:pageshadow="2"
     inkscape:pageopacity="0.0"
     inkscape:pagecheckerboard="0"
     showgrid="false"
     inkscape:zoom="2.4086957"
     inkscape:cx="106.07401"
     inkscape:cy="172.5"
     inkscape:window-width="1920"
     inkscape:window-height="1012"
     inkscape:window-x="0"
     inkscape:window-y="0"
     inkscape:window-maximized="1"
     inkscape:current-layer="svg51" />
  <!-- Generator: Sketch 47 (45396) - http://www.bohemiancoding.com/sketch -->
  <title
     id="title2">Slice 11</title>
  <desc
     id="desc4">Created with Sketch.</desc>
  <defs
     id="defs6" />
  <g
     id="Page-1"
     stroke="none"
     stroke-width="1"
     fill="none"
     fill-rule="evenodd"
     style="fill:#99dd99;fill-opacity:1">
    <g
       id="bulb"
       transform="translate(-51.000000, -27.000000)"
       style="fill:#99dd99;fill-opacity:1">
      <g
         id="Group-5"
         transform="translate(107.000000, 290.000000)"
         style="fill:#99dd99;fill-opacity:1">
        <path
           d="M24.7524752,43 L22.7722772,72 L24.7524752,43 Z"
           id="Triangle-3"
           fill="#656565"
           style="fill:#99dd99;fill-opacity:1" />
        <polygon
           id="polygon9"
           fill="#656565"
           points="0 62 25 41 50 82"
           style="fill:#99dd99;fill-opacity:1" />
        <polygon
           id="polygon11"
           fill="#787778"
           points="0 0 0 62 25 41"
           style="fill:#99dd99;fill-opacity:1" />
        <polygon
           id="polygon13"
           fill="#5C5C5C"
           points="75 41 50 82 100 62"
           style="fill:#99dd99;fill-opacity:1" />
        <polygon
           id="polygon15"
           fill="#787778"
           points="100 62 75 41 100 0"
           style="fill:#99dd99;fill-opacity:1" />
        <polygon
           id="polygon17"
           fill="#4A4A4A"
           points="0 0 100 0 50 82"
           style="fill:#99dd99;fill-opacity:1" />
      </g>
      <g
         id="Group"
         transform="translate(6.000000, 1.000000)"
         style="fill:#99dd99;fill-opacity:1">
        <polygon
           id="polygon20"
           fill="#FED12F"
           points="111 100 217 144 141 205"
           style="fill:#99dd99;fill-opacity:1" />
        <polygon
           id="polygon22"
           fill="#FED12F"
           points="191 26 251 88 217 144"
           style="fill:#99dd99;fill-opacity:1" />
        <polygon
           id="polygon24"
           fill="#FED12F"
           points="101 289 211 257 201 289"
           style="fill:#99dd99;fill-opacity:1" />
        <polygon
           id="polygon26"
           fill="#FED12F"
           points="91 257 141 205 101 289"
           style="fill:#99dd99;fill-opacity:1" />
        <polygon
           id="polygon28"
           fill="#FED12F"
           points="51 88 111 26 111 100"
           style="fill:#99dd99;fill-opacity:1" />
        <polygon
           id="polygon30"
           fill="#FFF3CB"
           points="141 205 211 257 217 144"
           style="fill:#99dd99;fill-opacity:1" />
        <polygon
           id="polygon32"
           fill="#FFF3CB"
           transform="translate(91.982123, 202.376609) rotate(140.000000) translate(-91.982123, -202.376609) "
           points="56.1185344 168.858891 118.731412 243.589257 127.845712 161.163961"
           style="fill:#99dd99;fill-opacity:1" />
        <polygon
           id="polygon34"
           fill="#FFDD63"
           transform="translate(187.648863, 90.616899) rotate(-53.000000) translate(-187.648863, -90.616899) "
           points="134.026748 35.0492865 241.270978 54.4058156 162.679178 146.184512"
           style="fill:#99dd99;fill-opacity:1" />
        <polygon
           id="polygon36"
           fill="#FFEDAC"
           transform="translate(112.700659, 170.148822) rotate(-53.000000) translate(-112.700659, -170.148822) "
           points="57.7008005 126.823779 167.700517 126.574001 101.898239 213.723643"
           style="fill:#99dd99;fill-opacity:1" />
        <polygon
           id="polygon38"
           fill="#FFDD63"
           transform="translate(148.569878, 267.401001) rotate(-53.000000) translate(-148.569878, -267.401001) "
           points="102.691884 242.40861 193.849867 223.801568 194.447872 311.000435"
           style="fill:#99dd99;fill-opacity:1" />
        <polygon
           id="polygon40"
           fill="#FFDD63"
           transform="translate(214.000000, 200.500000) rotate(-53.000000) translate(-214.000000, -200.500000) "
           points="167.071649 232.106642 260.928351 168.893358 249.86099 227.318639"
           style="fill:#99dd99;fill-opacity:1" />
        <polygon
           id="polygon42"
           fill="#FFDD63"
           transform="translate(55.981655, 127.407987) rotate(-53.000000) translate(-55.981655, -127.407987) "
           points="0.981796369 155.102831 84.4562375 99.713142 110.981513 154.853053"
           style="fill:#99dd99;fill-opacity:1" />
        <polygon
           id="polygon44"
           fill="#FEE382"
           transform="translate(254.000000, 138.000000) rotate(-53.000000) translate(-254.000000, -138.000000) "
           points="226.941031 112.061376 292.12633 105.513342 215.87367 170.486658"
           style="fill:#99dd99;fill-opacity:1" />
        <polygon
           id="polygon46"
           fill="#FEF1C0"
           transform="translate(146.320889, 50.144248) rotate(160.000000) translate(-146.320889, -50.144248) "
           points="96.0784387 57.5512633 196.563339 15.3756208 171.253848 84.9128748"
           style="fill:#99dd99;fill-opacity:1" />
      </g>
    </g>
  </g>
  <metadata
     id="metadata55">
    <rdf:RDF>
      <cc:Work
         rdf:about="">
        <dc:title>Slice 11</dc:title>
      </cc:Work>
    </rdf:RDF>
  </metadata>
</svg>
