<?xml version="1.0" encoding="UTF-8" standalone="no"?>
<svg
   width="61"
   height="67"
   viewBox="0 0 67 61"
   version="1.1"
   id="svg5"
   sodipodi:docname="gitlab.svg"
   inkscape:version="1.1.2 (0a00cf5339, 2022-02-04)"
   xmlns:inkscape="http://www.inkscape.org/namespaces/inkscape"
   xmlns:sodipodi="http://sodipodi.sourceforge.net/DTD/sodipodi-0.dtd"
   xmlns="http://www.w3.org/2000/svg"
   xmlns:svg="http://www.w3.org/2000/svg">
  <defs
     id="defs9" />
  <sodipodi:namedview
     id="namedview7"
     pagecolor="#ffffff"
     bordercolor="#666666"
     borderopacity="1.0"
     inkscape:pageshadow="2"
     inkscape:pageopacity="0.0"
     inkscape:pagecheckerboard="0"
     showgrid="false"
     inkscape:zoom="12.402985"
     inkscape:cx="30.516847"
     inkscape:cy="33.5"
     inkscape:window-width="1920"
     inkscape:window-height="1012"
     inkscape:window-x="0"
     inkscape:window-y="0"
     inkscape:window-maximized="1"
     inkscape:current-layer="svg5" />
  <path
     d="M13.2689249,0.858678261 L20.4920499,23.0676522 L44.3957999,23.0676522 L51.6189249,0.858678261 C51.9899666,-0.286226087 53.7422582,-0.286226087 54.1105916,0.858678261 L64.7624666,34.2101217 C64.9249666,34.7093217 64.9249666,35.2410783 64.7814249,35.7294261 L0.106424884,35.7294261 C-0.0389659813,35.2324734 -0.0323625306,34.7032786 0.125383217,34.2101217 L10.7772582,0.858678261 C11.1455916,-0.286226087 12.8978832,-0.286226087 13.2689249,0.858678261 Z"
     id="Path"
     fill="#005BBB"
     style="fill:#99dd99;fill-opacity:1" />
  <path
     d="M0.00350821738,34.8829565 C-0.0412288604,35.726797 0.344215838,36.5357999 1.02725822,37.031687 L32.4439249,59.9297739 L32.4628832,59.9162087 L32.4791332,59.9297739 L32.4655916,59.9134957 L63.8605916,37.031687 C64.5448664,36.5355988 64.9305248,35.7251253 64.8843416,34.8802435 L0.00350821738,34.8802435 L0.00350821738,34.8829565 Z"
     id="path3"
     fill="#FFD500"
     style="fill:#99dd99;fill-opacity:1" />
</svg>
